<svg width="72" height="72" viewBox="0 0 72 72" fill="none" xmlns="http://www.w3.org/2000/svg">
<path fill-rule="evenodd" clip-rule="evenodd" d="M22.808 0H49.197L49.2141 10.9812C49.2312 21.8411 49.2328 21.9632 49.5425 22.2987L60.3998 22.2964C67.357 22.2948 71.3621 22.3224 71.5489 22.3728C71.7092 22.4153 71.8758 22.5217 71.9186 22.6083C71.9692 22.7115 71.9972 27.2166 71.9995 35.6258C72.0026 48.2676 72.0003 48.4889 71.6991 48.8797L49.5861 48.9584L49.2312 49.3176L49.1923 72H22.808L22.8135 49.2735L22.6469 49.116C22.4819 48.96 22.3581 48.9584 0.354125 48.9143L0 48.5646L0.00155659 35.6652C0.00311319 27.2277 0.0311319 22.7115 0.0817212 22.6083C0.124528 22.5217 0.273182 22.4145 0.412498 22.3704C0.579053 22.3184 4.41139 22.2901 11.6005 22.2901C21.8476 22.2893 22.5442 22.2806 22.6741 22.153C22.8064 22.0246 22.8127 21.4684 22.8103 11.0088L22.808 0ZM29.9683 21.3755C29.7333 21.4897 29.2951 21.7891 28.9955 22.0411C28.6024 22.372 28.3573 22.6619 28.1129 23.0857C27.8506 23.5418 27.7416 23.8459 27.621 24.4595C27.5011 25.0661 27.4731 25.4647 27.4972 26.1926C27.5222 26.9307 27.5766 27.3017 27.7471 27.8862C27.8669 28.2982 27.9432 28.6968 27.916 28.7724C27.8895 28.8481 27.7969 28.9103 27.7113 28.9103C27.6257 28.9103 27.2318 28.7362 26.8357 28.5235C26.4403 28.3108 25.95 28.08 25.7461 28.0115C25.5429 27.9421 25.1312 27.8508 24.8316 27.8074C24.4588 27.7539 24.121 27.7554 23.7614 27.8122C23.4664 27.8594 22.9637 28.0264 22.6134 28.1934C22.271 28.3565 21.8725 28.5936 21.7277 28.7196C21.583 28.8465 21.3464 29.1537 21.2024 29.4026C21.0584 29.6516 20.8623 30.0951 20.7665 30.3873C20.621 30.83 20.5922 31.09 20.5945 31.9431C20.5961 32.8364 20.6272 33.083 20.8374 33.8731C20.9704 34.3709 21.2421 35.1863 21.4421 35.6849C21.6421 36.1828 21.8476 36.7121 21.8982 36.8602C21.962 37.0453 22.2002 37.3053 22.6523 37.685C23.0594 38.0261 23.5536 38.3506 23.9365 38.5271C24.279 38.6862 24.7172 38.854 24.9094 38.9005C25.1024 38.9477 25.5523 39.0147 25.9095 39.0486C26.2753 39.084 26.5983 39.1565 26.6489 39.2148C26.7174 39.2944 26.7065 39.3826 26.6022 39.589C26.5275 39.7379 26.315 40.0285 26.1298 40.2341C25.9445 40.4397 25.6628 40.7856 25.5032 41.0022C25.3445 41.2188 25.1071 41.6615 24.9748 41.9869C24.8432 42.3114 24.6689 42.8432 24.588 43.1685C24.4922 43.5529 24.4409 44.0342 24.4409 44.547C24.4414 45.0722 24.4904 45.5186 24.588 45.8862C24.6689 46.1895 24.823 46.633 24.9296 46.8709C25.037 47.1088 25.269 47.4995 25.4457 47.7374C25.6223 47.9753 26.073 48.4283 26.4473 48.7442C26.8816 49.1097 27.2404 49.346 27.4389 49.398C27.6101 49.4421 28.1269 49.6186 28.5869 49.7895C29.197 50.0164 29.6819 50.1345 30.3769 50.2251C31.2588 50.3393 31.3895 50.3386 32.1087 50.2157C32.5367 50.1424 33.4302 49.9069 34.0933 49.6926C34.9596 49.413 35.4756 49.2909 35.9223 49.2609C36.3924 49.2294 36.7216 49.2593 37.2649 49.3838C37.661 49.4752 38.4845 49.6926 39.0939 49.8675C39.8333 50.0796 40.4364 50.2012 40.9034 50.2322C41.2887 50.2574 41.902 50.2393 42.2654 50.1905C42.6297 50.1416 43.2251 50.0006 43.5885 49.8777C43.9528 49.754 44.6003 49.4712 45.0284 49.2499C45.5203 48.9954 45.9655 48.693 46.2363 48.4298C46.5274 48.1478 46.7578 47.8217 46.9484 47.4223C47.1033 47.097 47.3018 46.5834 47.3897 46.2801C47.4769 45.9768 47.5859 45.4537 47.631 45.1182C47.6769 44.7826 47.7127 44.3036 47.7127 44.0547C47.712 43.8058 47.6629 43.3717 47.6038 43.0897C47.5446 42.8077 47.4178 42.3114 47.3213 41.9869C47.1531 41.4205 47.1127 41.3614 46.3211 40.5516C45.8199 40.0396 45.5141 39.6677 45.5436 39.6063C45.574 39.5417 45.8581 39.4842 46.3414 39.4464C46.7539 39.4141 47.3104 39.3172 47.5773 39.2313C47.8451 39.1455 48.2918 38.9178 48.5696 38.7256C48.9557 38.4593 49.2242 38.1742 49.7013 37.5235C50.0453 37.054 50.4165 36.5278 50.5263 36.3545C50.6368 36.1812 50.8368 35.818 50.9715 35.547C51.1061 35.2761 51.303 34.727 51.4097 34.326C51.5163 33.9251 51.6245 33.2957 51.6509 32.9278C51.6813 32.493 51.654 31.9266 51.5731 31.3129C51.4711 30.5441 51.4104 30.3164 51.2478 30.0919C51.1372 29.9399 50.9715 29.702 50.8789 29.5617C50.7862 29.4215 50.5177 29.2033 50.2819 29.0765C50.0469 28.9497 49.6437 28.7842 49.3869 28.7094C49.0242 28.6039 48.7471 28.5834 48.1416 28.6172L47.3633 28.6606C45.7047 29.5255 45.1708 29.7768 45.1062 29.7768C45.0338 29.7768 44.9895 29.7028 44.9895 29.5799C44.9895 29.4712 45.1459 28.9308 45.3366 28.3786C45.5273 27.8263 45.7382 27.0725 45.8044 26.7046C45.8713 26.3359 45.9476 25.716 45.9748 25.326C46.0036 24.9085 45.9849 24.3421 45.9297 23.9475C45.8783 23.5788 45.7701 23.1361 45.6892 22.9628C45.609 22.7895 45.3047 22.4122 45.0136 22.1239C44.6501 21.7639 44.3124 21.5189 43.9388 21.3432C43.4687 21.1211 43.2881 21.0817 42.6157 21.0502C42.1853 21.0305 41.6288 21.0557 41.3704 21.1061C41.1136 21.1557 40.5711 21.3597 40.164 21.5583C39.5717 21.8481 39.3243 22.0246 38.9188 22.4508C38.595 22.7919 38.2712 23.2472 38.0175 23.7206C37.8003 24.1271 37.5303 24.7431 37.4182 25.0897C37.3061 25.4363 37.1723 26.0208 37.1217 26.3895C37.0672 26.7849 37.047 27.4459 37.0726 28.0044C37.1038 28.6818 37.1839 29.223 37.3559 29.9147C37.5669 30.7639 37.6423 30.9435 37.9801 31.4114C38.1918 31.7036 38.5335 32.0739 38.739 32.2346C38.9452 32.3945 39.3414 32.6229 39.6192 32.7427C40.0699 32.9357 40.2193 32.9593 40.9812 32.9585C41.7588 32.9569 41.8701 32.938 42.1876 32.7529C42.3806 32.6411 42.6779 32.437 42.8492 32.3007C43.0461 32.1432 43.229 32.0605 43.3465 32.0762C43.4492 32.0896 43.559 32.1716 43.5909 32.2582C43.6275 32.359 43.5504 32.7277 43.3768 33.2823C43.148 34.0102 43.0982 34.3 43.0663 35.0941C43.0375 35.7999 43.0593 36.1741 43.1527 36.5711C43.2212 36.8634 43.3652 37.2801 43.4718 37.4967C43.5792 37.7133 43.6664 37.9969 43.6664 38.1269C43.6664 38.3057 43.6236 38.3751 43.4913 38.4105C43.3955 38.4357 43.2461 38.4373 43.1605 38.4129C43.0749 38.3884 42.7776 38.1427 42.4989 37.867C42.1588 37.5306 41.8685 37.1359 41.6124 36.6633C41.4039 36.2765 41.1097 35.7298 40.9602 35.4486C40.8108 35.1666 40.5267 34.768 40.329 34.5616C40.1313 34.3552 39.9344 34.1882 39.8916 34.1905C39.8488 34.1921 39.6301 34.0684 39.4052 33.9156C39.1398 33.7344 38.7989 33.5926 38.4323 33.5099C38.1226 33.4406 37.6579 33.3343 37.4011 33.2736C37.1442 33.213 36.4267 33.1413 35.8056 33.1145C35.1853 33.0869 34.6296 33.0428 34.572 33.016C34.5019 32.9837 34.6335 32.8451 34.9611 32.604C35.2327 32.4047 35.5627 32.1211 35.6927 31.9738C35.8235 31.8273 36.0103 31.4941 36.1083 31.2341C36.2056 30.9742 36.341 30.5488 36.4095 30.2888C36.4905 29.9777 36.5333 29.479 36.5333 28.8315C36.5333 28.2139 36.4842 27.5971 36.4002 27.1772C36.327 26.8086 36.1457 26.1177 35.9963 25.6411C35.8468 25.1646 35.5744 24.491 35.3907 24.1444C35.2063 23.7978 34.9051 23.2661 34.7214 22.9628C34.5377 22.6595 34.2599 22.2751 34.1042 22.1089C33.9486 21.9427 33.5501 21.6677 33.2177 21.4984C32.8675 21.3196 32.4106 21.1573 32.1281 21.1124C31.8612 21.0691 31.5366 21.0383 31.4082 21.0431C31.2798 21.0486 30.9996 21.0785 30.7856 21.11C30.5715 21.1415 30.2042 21.2613 29.9683 21.3755ZM30.2797 31.8706C30.3871 31.8966 30.6673 32.0384 30.9023 32.1873C31.1381 32.3354 31.6284 32.5623 31.9919 32.6915C32.3562 32.8199 32.7585 32.9262 32.887 32.927C33.0154 32.9278 33.252 32.964 33.4123 33.0074C33.5734 33.0499 33.7042 33.1208 33.7042 33.1641C33.7042 33.2074 33.5119 33.3311 33.2761 33.4398C33.0411 33.5477 32.8224 33.6352 32.7897 33.6336C32.7578 33.632 32.5671 33.7998 32.3663 34.0078C32.1655 34.215 31.9328 34.4733 31.8495 34.5821C31.767 34.69 31.5561 35.0799 31.3817 35.4486C31.2074 35.8172 30.921 36.349 30.7459 36.6302C30.57 36.9114 30.3847 37.1682 30.3341 37.1997C30.2828 37.232 30.1621 37.2588 30.0656 37.2588C29.9676 37.2596 29.8563 37.1911 29.8127 37.1028C29.7566 36.9886 29.7784 36.7767 29.8913 36.3348C29.994 35.9346 30.0462 35.4793 30.0446 35.0153C30.0423 34.5316 29.9707 33.9928 29.8212 33.3217C29.6944 32.7545 29.6243 32.27 29.6562 32.1794C29.6874 32.0928 29.7963 31.977 29.8991 31.9226C30.001 31.8683 30.173 31.8446 30.2797 31.8706Z" fill="#5474AA"/>
</svg>
