<svg width="48" height="47" viewBox="0 0 48 47" fill="none" xmlns="http://www.w3.org/2000/svg">
<path d="M46.9427 29.525C47.242 28.1437 47.0321 26.8458 46.3344 25.7722L46.3248 25.7582C46.0039 25.2743 45.5954 24.8534 45.1205 24.5172L45.0683 24.4802C42.8228 22.9369 39.2344 23.1884 36.1396 25.1069C33.874 26.5082 32.25 28.5918 31.7956 30.681C31.4949 32.0625 31.7065 33.3615 32.4082 34.438L32.4159 34.4495C32.7369 34.9334 33.1454 35.3543 33.6203 35.6905C35.8635 37.2818 39.4757 37.0471 42.6174 35.1074C44.8706 33.701 46.4885 31.6156 46.9427 29.525ZM29.691 35.0308C28.9477 33.363 28.2454 31.786 28.3687 29.9354C28.7172 24.8183 28.927 21.7292 25.4707 19.2774C22.0144 16.8256 19.1649 18.0423 14.4456 20.059C12.737 20.7873 11.0135 20.6449 9.18738 20.4948C7.09416 20.3221 4.93146 20.1436 3.01509 21.4518C2.30563 21.9102 1.693 22.501 1.2104 23.1921C-0.83928 26.0816 -0.222884 30.0528 2.58327 32.0434C4.03121 33.0705 5.92279 33.6693 7.92463 34.3028C9.8494 34.9118 11.8392 35.5415 13.2406 36.5357C14.6421 37.5298 15.89 39.1967 17.0952 40.808C18.3537 42.4824 19.5367 44.0646 20.9887 45.0946C23.7908 47.0823 27.7385 46.3487 29.7881 43.4592C30.2785 42.7728 30.6308 41.9974 30.826 41.1749C31.4286 38.9323 30.545 36.9487 29.691 35.0308ZM18.8279 10.3185C18.9474 12.2071 19.7105 13.7415 20.9765 14.6396C21.1494 14.7622 21.3309 14.872 21.5197 14.9681C24.4316 16.4586 28.329 14.451 30.3969 10.3916C31.2673 8.68565 31.6848 6.81793 31.5773 5.13718C31.4577 3.25215 30.6924 1.71735 29.4272 0.819853C29.2543 0.697294 29.0728 0.587491 28.884 0.491341C25.9721 -0.999178 22.0746 1.00849 20.0068 5.06791C19.1372 6.77082 18.7209 8.63693 18.8279 10.3185ZM30.8444 21.5827C30.9975 21.7291 31.1612 21.8641 31.334 21.9868C32.6008 22.8854 34.3004 23.0979 36.1224 22.5865C37.744 22.1311 39.3644 21.1191 40.6886 19.7363C43.8354 16.4447 44.4421 12.1027 42.0741 9.84542C41.9209 9.69905 41.7573 9.56399 41.5845 9.44135C40.3181 8.54547 38.6166 8.33042 36.798 8.84057C35.1762 9.29457 33.5514 10.3059 32.2287 11.6934C29.082 14.9851 28.4752 19.327 30.8444 21.5827ZM8.85568 17.7368L8.86995 17.7409C10.1162 18.0463 11.4108 17.8168 12.6139 17.0767C14.4378 15.9541 15.8667 13.7358 16.4421 11.1355C17.2378 7.53658 16.2669 4.04966 14.026 2.46009C13.552 2.12281 13.0197 1.87635 12.4568 1.73358L12.4426 1.7295C11.201 1.42268 9.90416 1.65536 8.70103 2.39551C6.87714 3.5181 5.44826 5.73641 4.87288 8.33665C4.07711 11.9356 5.04807 15.4225 7.28892 17.0121C7.76236 17.3485 8.29382 17.5943 8.85568 17.7368Z" fill="black"/>
</svg>
